<?xml version="1.0"?>
<svg xmlns="http://www.w3.org/2000/svg" xmlns:xlink="http://www.w3.org/1999/xlink" width="157.517731" height="144.843353">
	<defs>
		<marker id="CustomMarker-01" markerUnits="strokeWidth" markerWidth="21" markerHeight="12" viewBox="-21 -6 21 12" orient="auto-start-reverse">
			<path d="M 0 -0 L -14 -4, -14 -0.5, -14 0.5, -14 4 Z" fill="#000000" stroke="#000000" stroke-linejoin="round" />
		</marker>
		<marker id="CustomMarker-02" markerUnits="strokeWidth" markerWidth="21" markerHeight="12" viewBox="-21 -6 21 12" orient="auto-start-reverse">
			<path d="M 0 -0 L -14 -4, -14 -0.5, -14 0.5, -14 4 Z" fill="#000000" stroke="#000000" stroke-linejoin="round" />
		</marker>
		<marker id="CustomMarker-03" markerUnits="strokeWidth" markerWidth="15.000001" markerHeight="9" viewBox="-15 -4.5 15 9" orient="auto-start-reverse">
			<path d="M 0 -0 L -10 -3, -8 -0.5, -8 0.5, -10 3 Z" fill="#000000" stroke="#000000" stroke-linejoin="round" />
		</marker>
		<marker id="CustomMarker-04" markerUnits="strokeWidth" markerWidth="15.000001" markerHeight="9" viewBox="-15 -4.5 15 9" orient="auto-start-reverse">
			<path d="M 0 -0 L -10 -3, -8 -0.5, -8 0.5, -10 3 Z" fill="#000000" stroke="#000000" stroke-linejoin="round" />
		</marker>
	</defs>
	<rect x="-63.7667847" y="-63.7667847" width="127.533569" height="127.533569" stroke="none" fill="#045275" fill-opacity="0" transform="matrix(0.625 0 0 0.625 78.7589 72.4217)" />
	<path d="M -63.7668 -63.7668 L 63.7668 -63.7668, 63.7668 63.7668, -63.7668 63.7668 Z" fill="none" stroke="#000000" stroke-width="1.60000002" stroke-linecap="round" stroke-linejoin="round" transform="matrix(0.625 0 0 0.625 78.7589 72.4217)" />
	<path d="M -110.814 0 L 110.814 0" fill="none" stroke="#000000" stroke-width="1.20000005" stroke-linecap="round" stroke-linejoin="round" marker-end="url(#CustomMarker-01)" transform="matrix(0.625 0 -0 0.625 78.7589 72.4217)" />
	<path d="M 0 100.675 L 0 -100.675" fill="none" stroke="#000000" stroke-width="1.20000005" stroke-linecap="round" stroke-linejoin="round" marker-end="url(#CustomMarker-02)" transform="matrix(0.625 0 -0 0.625 78.7589 72.4217)" />
	<path d="M -31.8834 0 L 31.8834 0" fill="none" stroke="#000000" stroke-width="1.60000002" stroke-linecap="round" stroke-linejoin="round" marker-end="url(#CustomMarker-03)" transform="matrix(0.625 0 0 0.625 98.686 72.4217)" />
	<path d="M -31.8834 31.8834 L 31.8834 -31.8834" fill="none" stroke="#000000" stroke-width="1.60000002" stroke-linecap="round" stroke-linejoin="round" marker-end="url(#CustomMarker-04)" transform="matrix(0.625 0 0 0.625 98.686 52.4946)" />
	<g transform="matrix(1 0 -0 1 94.0051 75.6131)">
		<svg width="32.9954643" height="41.9879913">
			<defs />
			<path d="M 5.48515 8.40431 C 5.44557 8.55807, 5.36542 8.67421, 5.24503 8.75273, 5.12464 8.83124, 5.00359 8.8705, 4.88124 8.87017, 4.75561 8.8705, 4.65125 8.83026, 4.56848 8.74978, 4.50763 8.69089, 4.47688 8.61401, 4.47688 8.51947, 4.47688 8.48152, 4.48408 8.43245, 4.49847 8.37291, 4.53806 8.23354, 4.60807 8.12558, 4.70883 8.0487, 4.80959 7.97215, 4.8868 7.92995, 4.94045 7.92275, 4.91559 7.89167, 4.84721 7.87597, 4.73566 7.87564, 4.50927 7.87597, 4.30448 7.945, 4.12127 8.08273, 3.93807 8.22078, 3.7565 8.38566, 3.57657 8.57737, 3.39697 8.76941, 3.2154 8.96995, 3.0322 9.17933, 2.84899 9.3887, 2.68869 9.53363, 2.55194 9.61345, 2.68149 9.62785, 2.84867 9.66809, 3.05346 9.73417, 3.25826 9.80058, 3.43263 9.89218, 3.57657 10.009, 3.72052 10.1261, 3.82095 10.2681, 3.87853 10.4353, 3.91092 10.5262, 3.92891 10.6276, 3.93218 10.7388, 3.93218 10.8298, 3.92139 10.926, 3.89979 11.0267, 3.85694 11.191, 3.82651 11.3428, 3.80819 11.4821, 3.7938 11.5698, 3.7866 11.65, 3.7866 11.7229, 3.7866 11.7615, 3.7902 11.8034, 3.7974 11.8485, 3.80459 11.9467, 3.82978 12.02, 3.87297 12.0687, 3.91615 12.1178, 3.98093 12.142, 4.06697 12.1417, 4.17133 12.142, 4.26293 12.108, 4.3421 12.0399, 4.42127 11.9719, 4.49291 11.876, 4.55769 11.752, 4.62246 11.6284, 4.68004 11.4808, 4.73042 11.3097, 4.7808 11.1389, 4.83086 10.9554, 4.88124 10.7598, 4.90283 10.6695, 4.96597 10.624, 5.07 10.6237 L 5.18843 10.6237 C 5.2784 10.624, 5.32681 10.6623, 5.33401 10.7388 L 5.33401 10.7755 C 5.29083 10.9538, 5.23521 11.1422, 5.16684 11.3411, 5.09879 11.54, 5.01341 11.7242, 4.91101 11.8934, 4.80861 12.0628, 4.68462 12.2038, 4.53904 12.317, 4.39346 12.4305, 4.21287 12.4871, 3.99696 12.4871, 3.80296 12.4871, 3.6348 12.4446, 3.49282 12.3589, 3.35084 12.2738, 3.24321 12.1623, 3.1696 12.0242, 3.09599 11.8865, 3.05182 11.7268, 3.03743 11.5449 L 3.03743 11.4245 C 3.03743 11.2852, 3.05182 11.1458, 3.08061 11.0058, 3.10221 10.9224, 3.11464 10.8439, 3.11824 10.7703, 3.11824 10.5785, 3.04659 10.413, 2.90264 10.273, 2.69425 10.0885, 2.42108 9.97332, 2.08314 9.92752 L 1.52241 12.0998 C 1.49035 12.2293, 1.42459 12.3258, 1.32579 12.3903, 1.22699 12.4551, 1.12721 12.4871, 1.02645 12.4871, 0.922416 12.4871, 0.836048 12.4524, 0.767674 12.3824, 0.720892 12.3373, 0.697337 12.2745, 0.697337 12.194, 0.697337 12.1561, 0.700936 12.1174, 0.708133 12.0788 L 2.33112 5.78713 C 2.35991 5.6723, 2.3779 5.58495, 2.3851 5.52541 L 2.3851 5.5097 C 2.3851 5.47862, 2.3779 5.45605, 2.3635 5.44166, 2.32032 5.41418, 2.23952 5.39487, 2.12076 5.38441, 2.00233 5.37394, 1.86558 5.3687, 1.71117 5.36838, 1.65719 5.3687, 1.61761 5.35136, 1.59242 5.31603, 1.57082 5.29542, 1.56003 5.26925, 1.56003 5.23752, 1.56003 5.21691, 1.56559 5.1976, 1.57639 5.17994 L 1.59242 5.09619 C 1.6212 5.01276, 1.68958 4.96042, 1.79721 4.93916 L 3.2046 4.824, 3.22587 4.824 C 3.26905 4.82433, 3.30504 4.83839, 3.33383 4.86588, 3.35542 4.89761, 3.36621 4.92542, 3.36621 4.94963, 3.36621 4.97089, 3.36098 4.99019, 3.35018 5.0072 L 2.20713 9.44595 C 2.29349 9.41487, 2.40309 9.33996, 2.53591 9.2212, 2.66906 9.10277, 2.80123 8.97192, 2.93242 8.82862, 3.0636 8.68566, 3.19741 8.53746, 3.33383 8.3837, 3.47057 8.23027, 3.61321 8.08992, 3.76239 7.96234, 3.91157 7.83507, 4.07089 7.73039, 4.2397 7.64827, 4.40851 7.56649, 4.59727 7.52526, 4.80567 7.52494, 5.06084 7.52526, 5.25517 7.61065, 5.38799 7.78142, 5.47796 7.9005, 5.52278 8.03136, 5.52278 8.174, 5.52278 8.25121, 5.51034 8.32776, 5.48515 8.40431 Z" stroke="none" fill="#000000" />
			<polygon points="-2.70144 0 -0.98624 -1.072 -0.58424 -1.072 -1.49544 -0.201 2.70144 -0.201 2.70144 0.201 -1.49544 0.201 -0.58424 1.072 -0.98624 1.072" stroke="none" fill="#000000" transform="matrix(-1 8.74228e-008 -8.74228e-008 -1 3.20543 2.68)" />
			<path d="M 1.3665 1.82693 L -1.09062 1.82693, -1.09062 1.66571 C -1.09062 1.65417, -1.08457 1.63658, -1.07248 1.61295 L -0.0853823 0.540112 C 0.0315012 0.411321, 0.149667 0.279415, 0.269482 0.144577, 0.389297 0.00973952, 0.496288 -0.128029, 0.59082 -0.268729, 0.685353 -0.409429, 0.760833 -0.554526, 0.817259 -0.70402, 0.873686 -0.853514, 0.901716 -1.01034, 0.901716 -1.17467, 0.901716 -1.31317, 0.883762 -1.44269, 0.847488 -1.56288, 0.811214 -1.68306, 0.759001 -1.78858, 0.690483 -1.87945, 0.621965 -1.97032, 0.536409 -2.0436, 0.433815 -2.09929, 0.331222 -2.15499, 0.212506 -2.18284, 0.0776684 -2.18302, -0.123489 -2.18284, -0.301196 -2.12275, -0.455086 -2.00256, -0.608977 -1.88238, -0.711204 -1.74993, -0.761585 -1.60556, -0.771478 -1.60153, -0.755356 -1.59952, -0.713219 -1.5997 L -0.661923 -1.5997 C -0.601466 -1.58578, -0.549253 -1.56471, -0.504918 -1.53649, -0.460582 -1.5081, -0.423392 -1.46908, -0.393164 -1.41925, -0.362935 -1.36941, -0.347912 -1.30932, -0.347912 -1.23916, -0.347912 -1.12172, -0.386019 -1.03177, -0.462598 -0.969298, -0.539177 -0.906643, -0.624732 -0.875498, -0.719265 -0.875681, -0.809768 -0.875498, -0.894224 -0.906643, -0.972818 -0.969298, -1.05123 -1.03177, -1.09062 -1.12172, -1.09062 -1.23916, -1.09062 -1.40312, -1.05837 -1.55848, -0.993887 -1.70504, -0.929399 -1.8516, -0.842011 -1.97856, -0.731357 -2.0861, -0.620702 -2.19346, -0.489895 -2.27847, -0.338935 -2.34112, -0.187976 -2.4036, -0.0278566 -2.43492, 0.141057 -2.43511, 0.350275 -2.43492, 0.542088 -2.40415, 0.716131 -2.34259, 0.890174 -2.28103, 1.03857 -2.19255, 1.16131 -2.07731, 1.28406 -1.96189, 1.38024 -1.82852, 1.44968 -1.6772, 1.51911 -1.52569, 1.55374 -1.35824, 1.55374 -1.17467, 1.55374 -0.971313, 1.50757 -0.78408, 1.41487 -0.613151, 1.32235 -0.442039, 1.20767 -0.285218, 1.07081 -0.142686, 0.93396 2.96831e-005, 0.788496 0.134318, 0.634606 0.260361, 0.480715 0.386405, 0.341298 0.508968, 0.216536 0.62805 L -0.477803 1.28172, 0.430884 1.28172 C 0.557661 1.2819, 0.67601 1.28099, 0.785565 1.27897, 0.895304 1.27714, 0.988371 1.27311, 1.06477 1.26725, 1.14135 1.26138, 1.18055 1.25754, 1.18238 1.25534, 1.19851 1.24178, 1.21371 1.21448, 1.22782 1.17345, 1.24192 1.13241, 1.25493 1.08404, 1.26702 1.02835, 1.27911 0.972655, 1.29121 0.916045, 1.3033 0.858336, 1.31539 0.800811, 1.32638 0.737606, 1.33646 0.669088 L 1.55978 0.669088 Z" stroke="none" fill="#000000" transform="matrix(1.12 0 0 1 7.86668 12.0603)" />
			<rect />
		</svg>
	</g>
	<g transform="matrix(1 0 -0 1 87.7536 37.3631)">
		<svg width="32.9954643" height="41.9879913">
			<defs />
			<path d="M 5.48515 8.40431 C 5.44557 8.55807, 5.36542 8.67421, 5.24503 8.75273, 5.12464 8.83124, 5.00359 8.8705, 4.88124 8.87017, 4.75561 8.8705, 4.65125 8.83026, 4.56848 8.74978, 4.50763 8.69089, 4.47688 8.61401, 4.47688 8.51947, 4.47688 8.48152, 4.48408 8.43245, 4.49847 8.37291, 4.53806 8.23354, 4.60807 8.12558, 4.70883 8.0487, 4.80959 7.97215, 4.8868 7.92995, 4.94045 7.92275, 4.91559 7.89167, 4.84721 7.87597, 4.73566 7.87564, 4.50927 7.87597, 4.30448 7.945, 4.12127 8.08273, 3.93807 8.22078, 3.7565 8.38566, 3.57657 8.57737, 3.39697 8.76941, 3.2154 8.96995, 3.0322 9.17933, 2.84899 9.3887, 2.68869 9.53363, 2.55194 9.61345, 2.68149 9.62785, 2.84867 9.66809, 3.05346 9.73417, 3.25826 9.80058, 3.43263 9.89218, 3.57657 10.009, 3.72052 10.1261, 3.82095 10.2681, 3.87853 10.4353, 3.91092 10.5262, 3.92891 10.6276, 3.93218 10.7388, 3.93218 10.8298, 3.92139 10.926, 3.89979 11.0267, 3.85694 11.191, 3.82651 11.3428, 3.80819 11.4821, 3.7938 11.5698, 3.7866 11.65, 3.7866 11.7229, 3.7866 11.7615, 3.7902 11.8034, 3.7974 11.8485, 3.80459 11.9467, 3.82978 12.02, 3.87297 12.0687, 3.91615 12.1178, 3.98093 12.142, 4.06697 12.1417, 4.17133 12.142, 4.26293 12.108, 4.3421 12.0399, 4.42127 11.9719, 4.49291 11.876, 4.55769 11.752, 4.62246 11.6284, 4.68004 11.4808, 4.73042 11.3097, 4.7808 11.1389, 4.83086 10.9554, 4.88124 10.7598, 4.90283 10.6695, 4.96597 10.624, 5.07 10.6237 L 5.18843 10.6237 C 5.2784 10.624, 5.32681 10.6623, 5.33401 10.7388 L 5.33401 10.7755 C 5.29083 10.9538, 5.23521 11.1422, 5.16684 11.3411, 5.09879 11.54, 5.01341 11.7242, 4.91101 11.8934, 4.80861 12.0628, 4.68462 12.2038, 4.53904 12.317, 4.39346 12.4305, 4.21287 12.4871, 3.99696 12.4871, 3.80296 12.4871, 3.6348 12.4446, 3.49282 12.3589, 3.35084 12.2738, 3.24321 12.1623, 3.1696 12.0242, 3.09599 11.8865, 3.05182 11.7268, 3.03743 11.5449 L 3.03743 11.4245 C 3.03743 11.2852, 3.05182 11.1458, 3.08061 11.0058, 3.10221 10.9224, 3.11464 10.8439, 3.11824 10.7703, 3.11824 10.5785, 3.04659 10.413, 2.90264 10.273, 2.69425 10.0885, 2.42108 9.97332, 2.08314 9.92752 L 1.52241 12.0998 C 1.49035 12.2293, 1.42459 12.3258, 1.32579 12.3903, 1.22699 12.4551, 1.12721 12.4871, 1.02645 12.4871, 0.922416 12.4871, 0.836048 12.4524, 0.767674 12.3824, 0.720892 12.3373, 0.697337 12.2745, 0.697337 12.194, 0.697337 12.1561, 0.700936 12.1174, 0.708133 12.0788 L 2.33112 5.78713 C 2.35991 5.6723, 2.3779 5.58495, 2.3851 5.52541 L 2.3851 5.5097 C 2.3851 5.47862, 2.3779 5.45605, 2.3635 5.44166, 2.32032 5.41418, 2.23952 5.39487, 2.12076 5.38441, 2.00233 5.37394, 1.86558 5.3687, 1.71117 5.36838, 1.65719 5.3687, 1.61761 5.35136, 1.59242 5.31603, 1.57082 5.29542, 1.56003 5.26925, 1.56003 5.23752, 1.56003 5.21691, 1.56559 5.1976, 1.57639 5.17994 L 1.59242 5.09619 C 1.6212 5.01276, 1.68958 4.96042, 1.79721 4.93916 L 3.2046 4.824, 3.22587 4.824 C 3.26905 4.82433, 3.30504 4.83839, 3.33383 4.86588, 3.35542 4.89761, 3.36621 4.92542, 3.36621 4.94963, 3.36621 4.97089, 3.36098 4.99019, 3.35018 5.0072 L 2.20713 9.44595 C 2.29349 9.41487, 2.40309 9.33996, 2.53591 9.2212, 2.66906 9.10277, 2.80123 8.97192, 2.93242 8.82862, 3.0636 8.68566, 3.19741 8.53746, 3.33383 8.3837, 3.47057 8.23027, 3.61321 8.08992, 3.76239 7.96234, 3.91157 7.83507, 4.07089 7.73039, 4.2397 7.64827, 4.40851 7.56649, 4.59727 7.52526, 4.80567 7.52494, 5.06084 7.52526, 5.25517 7.61065, 5.38799 7.78142, 5.47796 7.9005, 5.52278 8.03136, 5.52278 8.174, 5.52278 8.25121, 5.51034 8.32776, 5.48515 8.40431 Z" stroke="none" fill="#000000" />
			<polygon points="-2.70144 0 -0.98624 -1.072 -0.58424 -1.072 -1.49544 -0.201 2.70144 -0.201 2.70144 0.201 -1.49544 0.201 -0.58424 1.072 -0.98624 1.072" stroke="none" fill="#000000" transform="matrix(-1 8.74228e-008 -8.74228e-008 -1 3.20543 2.68)" />
			<path d="M 1.35581 1.82693 C 0.985557 1.81521, 0.62538 1.80934, 0.275096 1.80934, -0.0750055 1.80934, -0.435183 1.81521, -0.805436 1.82693 L -0.805436 1.57484, -0.597134 1.57484 C -0.530815 1.57503, -0.468343 1.57411, -0.410084 1.5721, -0.351642 1.57026, -0.296315 1.56532, -0.243919 1.55744, -0.191523 1.54974, -0.146272 1.54187, -0.108165 1.53381, -0.0759215 1.52813, -0.0493572 1.51017, -0.0282887 1.47976, -0.00703716 1.44953, 0.00340533 1.41582, 0.00340533 1.37845 L 0.00340533 -1.92507 C -0.09699 -1.87597, -0.220835 -1.83878, -0.367764 -1.8135, -0.514693 -1.78803, -0.675545 -1.77539, -0.850688 -1.77557 L -0.850688 -2.02473 C -0.609226 -2.02455, -0.386268 -2.05331, -0.181996 -2.11102, 0.0222753 -2.16855, 0.198883 -2.27664, 0.347644 -2.43511 L 0.441261 -2.43511 C 0.50758 -2.43492, 0.54074 -2.40268, 0.54074 -2.33838 L 0.54074 1.37845 C 0.54074 1.41766, 0.550816 1.45191, 0.570969 1.48123, 0.591121 1.51054, 0.620433 1.52813, 0.65854 1.53381, 0.690784 1.54187, 0.732187 1.54974, 0.782385 1.55744, 0.832583 1.56532, 0.889376 1.57026, 0.952764 1.5721, 1.01615 1.57411, 1.07807 1.57503, 1.13853 1.57484 L 1.35581 1.57484, 1.35581 1.82693 Z" stroke="none" fill="#000000" transform="matrix(1.12 0 0 1 7.62504 12.0603)" />
			<rect />
		</svg>
	</g>
</svg>
